<svg width="67" height="12" viewBox="0 0 67 12" fill="none" xmlns="http://www.w3.org/2000/svg">
<path d="M5.124 1.06C5.35733 1.06 5.54867 1.10667 5.698 1.2C5.85667 1.284 5.98733 1.40067 6.09 1.55C6.19267 1.69 6.27667 1.85333 6.342 2.04C6.40733 2.22667 6.46333 2.418 6.51 2.614C6.88333 4.126 7.19133 5.372 7.434 6.352C7.67667 7.332 7.868 8.12533 8.008 8.732C8.148 9.32933 8.246 9.77267 8.302 10.062C8.358 10.3513 8.386 10.552 8.386 10.664C8.386 10.7947 8.35333 10.8833 8.288 10.93C8.232 10.9767 8.13867 11 8.008 11H7.294C6.89267 11 6.57067 10.9533 6.328 10.86C6.09467 10.7573 5.91267 10.6127 5.782 10.426C5.66067 10.2393 5.572 10.0153 5.516 9.754C5.46 9.48333 5.41333 9.18 5.376 8.844H2.94L2.478 10.776C2.43133 10.9253 2.324 11 2.156 11H1.414C1.26467 11 1.11067 10.986 0.952 10.958C0.793333 10.9207 0.648667 10.8647 0.518 10.79C0.396667 10.7153 0.294 10.622 0.21 10.51C0.126 10.3887 0.084 10.244 0.084 10.076C0.084 9.87067 0.149333 9.53467 0.28 9.068C0.410667 8.60133 0.574 8.074 0.77 7.486C0.975333 6.88867 1.19933 6.268 1.442 5.624C1.694 4.97067 1.93667 4.35467 2.17 3.776C2.40333 3.19733 2.61333 2.68867 2.8 2.25C2.996 1.81133 3.14533 1.50333 3.248 1.326C3.32267 1.19533 3.388 1.12067 3.444 1.102C3.50933 1.074 3.626 1.06 3.794 1.06H5.124ZM3.444 6.814H5.054L4.466 3.118L3.444 6.814ZM14.016 9.768C14.016 9.56267 14.03 9.29667 14.058 8.97C14.0953 8.634 14.128 8.284 14.156 7.92C14.1933 7.54667 14.226 7.18733 14.254 6.842C14.2913 6.49667 14.31 6.20733 14.31 5.974C14.31 5.73133 14.2493 5.51667 14.128 5.33C14.016 5.134 13.792 5.036 13.456 5.036C13.1293 5.036 12.8586 5.11533 12.644 5.274C12.4293 5.43267 12.2473 5.722 12.098 6.142C11.958 6.562 11.8413 7.14067 11.748 7.878C11.6546 8.61533 11.566 9.56267 11.482 10.72C11.4726 10.832 11.4493 10.9067 11.412 10.944C11.3746 10.9813 11.2953 11 11.174 11H10.67C10.3806 11 10.1426 10.972 9.95597 10.916C9.77864 10.8507 9.63397 10.762 9.52197 10.65C9.4193 10.538 9.34464 10.4027 9.29797 10.244C9.26064 10.076 9.24197 9.88467 9.24197 9.67C9.24197 9.53 9.24664 9.334 9.25597 9.082C9.27464 8.82067 9.30264 8.466 9.33997 8.018C9.3773 7.56067 9.4193 6.98667 9.46597 6.296C9.52197 5.596 9.5873 4.73267 9.66197 3.706C9.6713 3.50067 9.69464 3.37933 9.73197 3.342C9.75997 3.314 9.83464 3.3 9.95597 3.3H10.502C10.782 3.3 11.0106 3.33267 11.188 3.398C11.3746 3.46333 11.524 3.552 11.636 3.664C11.748 3.76667 11.8273 3.89267 11.874 4.042C11.9206 4.182 11.9486 4.32667 11.958 4.476C12.2473 3.98133 12.5786 3.64067 12.952 3.454C13.3253 3.258 13.792 3.16 14.352 3.16C14.744 3.16 15.0846 3.202 15.374 3.286C15.6633 3.37 15.9013 3.51467 16.088 3.72C16.284 3.916 16.4286 4.17733 16.522 4.504C16.6153 4.82133 16.662 5.218 16.662 5.694C16.662 5.84333 16.6526 6.058 16.634 6.338C16.6153 6.618 16.592 6.926 16.564 7.262C16.536 7.58867 16.5033 7.934 16.466 8.298C16.438 8.65267 16.41 8.984 16.382 9.292C16.354 9.6 16.3306 9.87067 16.312 10.104C16.2933 10.3373 16.284 10.4913 16.284 10.566C16.284 10.7713 16.2606 10.8973 16.214 10.944C16.1673 10.9813 16.0646 11 15.906 11H15.458C15.1593 11 14.9166 10.972 14.73 10.916C14.5433 10.86 14.3986 10.7807 14.296 10.678C14.1933 10.5753 14.1186 10.4493 14.072 10.3C14.0346 10.1413 14.016 9.964 14.016 9.768ZM19.3519 11C19.0626 11 18.8246 10.972 18.6379 10.916C18.4606 10.8507 18.3159 10.762 18.2039 10.65C18.1013 10.538 18.0266 10.4027 17.9799 10.244C17.9426 10.076 17.9239 9.88467 17.9239 9.67C17.9239 9.53 17.9286 9.334 17.9379 9.082C17.9566 8.82067 17.9846 8.466 18.0219 8.018C18.0593 7.56067 18.1013 6.98667 18.1479 6.296C18.2039 5.596 18.2693 4.73267 18.3439 3.706C18.3533 3.50067 18.3766 3.37933 18.4139 3.342C18.4419 3.314 18.5166 3.3 18.6379 3.3H19.1839C19.4733 3.3 19.7066 3.328 19.8839 3.384C20.0706 3.44 20.2153 3.524 20.3179 3.636C20.4299 3.748 20.5046 3.88333 20.5419 4.042C20.5886 4.20067 20.6119 4.378 20.6119 4.574C20.6119 4.714 20.6026 4.924 20.5839 5.204C20.5653 5.484 20.5373 5.86667 20.4999 6.352C20.4719 6.828 20.4299 7.42533 20.3739 8.144C20.3179 8.85333 20.2479 9.712 20.1639 10.72C20.1546 10.832 20.1313 10.9067 20.0939 10.944C20.0566 10.9813 19.9773 11 19.8559 11H19.3519ZM18.3579 1.648C18.3579 1.27467 18.4933 0.980667 18.7639 0.766C19.0346 0.551333 19.3986 0.444 19.8559 0.444C20.2573 0.444 20.5466 0.528 20.7239 0.695999C20.9106 0.854666 21.0039 1.06933 21.0039 1.34C21.0039 1.68533 20.8733 1.97467 20.6119 2.208C20.3599 2.432 19.9866 2.544 19.4919 2.544C18.7359 2.544 18.3579 2.24533 18.3579 1.648Z" fill="white"/>
<path d="M25.8374 0.92C26.7148 0.92 27.3634 1.11133 27.7834 1.494C28.2128 1.87667 28.4274 2.376 28.4274 2.992C28.4274 3.51467 28.2828 3.916 27.9934 4.196C27.7041 4.46667 27.2888 4.602 26.7474 4.602C26.5794 4.602 26.4721 4.588 26.4254 4.56C26.3788 4.52267 26.3554 4.45267 26.3554 4.35C26.3554 4.25667 26.3461 4.13533 26.3274 3.986C26.3181 3.83667 26.2854 3.692 26.2294 3.552C26.1734 3.412 26.0848 3.29533 25.9634 3.202C25.8421 3.09933 25.6741 3.048 25.4594 3.048C25.1608 3.048 24.8948 3.14133 24.6614 3.328C24.4281 3.50533 24.3114 3.73867 24.3114 4.028C24.3114 4.28 24.4048 4.48533 24.5914 4.644C24.7874 4.80267 25.0301 4.952 25.3194 5.092C25.6088 5.22267 25.9214 5.358 26.2574 5.498C26.6028 5.638 26.9201 5.82467 27.2094 6.058C27.4988 6.282 27.7368 6.56667 27.9234 6.912C28.1194 7.248 28.2174 7.67733 28.2174 8.2C28.2174 8.61067 28.1474 8.998 28.0074 9.362C27.8768 9.71667 27.6761 10.0293 27.4054 10.3C27.1441 10.5613 26.8081 10.7667 26.3974 10.916C25.9961 11.0653 25.5248 11.14 24.9834 11.14C24.5168 11.14 24.0828 11.0887 23.6814 10.986C23.2894 10.8833 22.9441 10.7573 22.6454 10.608C22.3561 10.4493 22.1274 10.2813 21.9594 10.104C21.7914 9.91733 21.7074 9.74933 21.7074 9.6C21.7074 8.984 21.7401 8.54067 21.8054 8.27C21.8801 7.99933 22.0108 7.864 22.1974 7.864C22.3281 7.864 22.4634 7.92 22.6034 8.032C22.7528 8.144 22.9208 8.27 23.1074 8.41C23.2941 8.55 23.5088 8.676 23.7514 8.788C24.0034 8.9 24.2928 8.956 24.6194 8.956C24.7501 8.956 24.8761 8.94667 24.9974 8.928C25.1281 8.9 25.2401 8.858 25.3334 8.802C25.4361 8.746 25.5154 8.67133 25.5714 8.578C25.6368 8.48467 25.6694 8.37267 25.6694 8.242C25.6694 8.00867 25.5808 7.822 25.4034 7.682C25.2261 7.542 25.0021 7.416 24.7314 7.304C24.4608 7.18267 24.1668 7.06133 23.8494 6.94C23.5414 6.80933 23.2521 6.63667 22.9814 6.422C22.7108 6.198 22.4868 5.91333 22.3094 5.568C22.1321 5.22267 22.0434 4.77933 22.0434 4.238C22.0434 3.63133 22.1554 3.118 22.3794 2.698C22.6128 2.278 22.9068 1.93733 23.2614 1.676C23.6254 1.40533 24.0314 1.214 24.4794 1.102C24.9368 0.980666 25.3894 0.92 25.8374 0.92ZM32.4317 5.19C32.4037 5.54467 32.371 5.89467 32.3337 6.24C32.3057 6.58533 32.2777 6.912 32.2497 7.22C32.2217 7.528 32.1983 7.80333 32.1797 8.046C32.1703 8.28867 32.1657 8.47533 32.1657 8.606C32.1657 8.84867 32.1937 9.012 32.2497 9.096C32.3057 9.17067 32.399 9.208 32.5297 9.208C32.6323 9.208 32.721 9.18933 32.7957 9.152C32.8703 9.11467 32.9403 9.07267 33.0057 9.026C33.071 8.97933 33.127 8.93733 33.1737 8.9C33.2297 8.86267 33.2903 8.844 33.3557 8.844C33.421 8.844 33.4817 8.88133 33.5377 8.956C33.5937 9.03067 33.6217 9.20333 33.6217 9.474C33.6217 9.98733 33.4817 10.3933 33.2017 10.692C32.9217 10.9907 32.441 11.14 31.7597 11.14C31.0877 11.14 30.5883 10.986 30.2617 10.678C29.9443 10.3607 29.7857 9.88 29.7857 9.236C29.7857 9.096 29.7903 8.93267 29.7997 8.746C29.8183 8.55 29.8417 8.298 29.8697 7.99C29.8977 7.682 29.9303 7.304 29.9677 6.856C30.0143 6.408 30.061 5.85267 30.1077 5.19H29.3657C29.291 5.19 29.2443 5.176 29.2257 5.148C29.2163 5.11067 29.2117 5.05933 29.2117 4.994L29.2537 4.28C29.263 4.15867 29.277 4.042 29.2957 3.93C29.3237 3.80867 29.3703 3.70133 29.4357 3.608C29.5103 3.51467 29.613 3.44 29.7437 3.384C29.8743 3.328 30.047 3.3 30.2617 3.3C30.327 3.132 30.4017 2.93133 30.4857 2.698C30.5697 2.46467 30.6537 2.24067 30.7377 2.026C30.8217 1.802 30.901 1.61533 30.9757 1.466C31.0597 1.31667 31.1343 1.242 31.1997 1.242H31.6057C31.9977 1.242 32.2683 1.36333 32.4177 1.606C32.567 1.84867 32.6417 2.138 32.6417 2.474C32.6417 2.66067 32.6277 2.936 32.5997 3.3H34.0697C34.219 3.3 34.2937 3.36533 34.2937 3.496L34.2377 4.252C34.219 4.532 34.1397 4.76067 33.9997 4.938C33.869 5.106 33.5937 5.19 33.1737 5.19H32.4317ZM38.0538 11.14C37.4098 11.14 36.8731 11.0513 36.4438 10.874C36.0238 10.6873 35.6878 10.4353 35.4358 10.118C35.1838 9.80067 35.0064 9.432 34.9038 9.012C34.8011 8.58267 34.7498 8.12533 34.7498 7.64C34.7498 7.08 34.8151 6.534 34.9458 6.002C35.0858 5.46067 35.3191 4.98 35.6458 4.56C35.9724 4.14 36.4018 3.804 36.9338 3.552C37.4751 3.29067 38.1471 3.16 38.9498 3.16C40.1258 3.16 40.9658 3.44933 41.4698 4.028C41.9831 4.59733 42.2398 5.4 42.2398 6.436C42.2398 6.72533 42.2164 7.04733 42.1698 7.402C42.1324 7.74733 42.0531 8.09267 41.9318 8.438C41.8198 8.78333 41.6611 9.11933 41.4558 9.446C41.2598 9.77267 41.0078 10.062 40.6998 10.314C40.3918 10.566 40.0184 10.7667 39.5798 10.916C39.1504 11.0653 38.6418 11.14 38.0538 11.14ZM38.7118 5.022C38.3571 5.022 38.0724 5.11533 37.8578 5.302C37.6524 5.47933 37.4938 5.69867 37.3818 5.96C37.2791 6.212 37.2091 6.48267 37.1718 6.772C37.1438 7.052 37.1298 7.29 37.1298 7.486C37.1298 8.102 37.2278 8.55467 37.4238 8.844C37.6198 9.13333 37.8998 9.278 38.2638 9.278C38.5904 9.278 38.8564 9.17533 39.0618 8.97C39.2764 8.76467 39.4398 8.51733 39.5518 8.228C39.6731 7.93867 39.7524 7.63533 39.7898 7.318C39.8364 7.00067 39.8598 6.73467 39.8598 6.52C39.8598 6.05333 39.7711 5.68933 39.5938 5.428C39.4258 5.15733 39.1318 5.022 38.7118 5.022ZM47.8069 6.646C47.7509 6.646 47.6856 6.646 47.6109 6.646C47.5456 6.63667 47.4803 6.62733 47.4149 6.618C47.3496 6.59933 47.2936 6.58067 47.2469 6.562C47.2003 6.534 47.1769 6.50133 47.1769 6.464C47.1769 6.34267 47.1816 6.23067 47.1909 6.128C47.2003 6.02533 47.2049 5.918 47.2049 5.806C47.2049 5.60067 47.1769 5.43267 47.1209 5.302C47.0649 5.17133 46.9529 5.106 46.7849 5.106C46.5236 5.106 46.3043 5.27867 46.1269 5.624C45.9589 5.96 45.8516 6.46867 45.8049 7.15C45.7863 7.44867 45.7583 7.78933 45.7209 8.172C45.6929 8.54533 45.6649 8.90933 45.6369 9.264C45.6089 9.60933 45.5856 9.91733 45.5669 10.188C45.5483 10.4587 45.5389 10.636 45.5389 10.72C45.5389 10.8133 45.5063 10.8833 45.4409 10.93C45.3756 10.9767 45.3056 11 45.2309 11H44.7269C44.4376 11 44.1996 10.972 44.0129 10.916C43.8356 10.8507 43.6909 10.762 43.5789 10.65C43.4763 10.538 43.4016 10.4027 43.3549 10.244C43.3176 10.076 43.2989 9.88467 43.2989 9.67C43.2989 9.53 43.3036 9.334 43.3129 9.082C43.3316 8.82067 43.3596 8.466 43.3969 8.018C43.4343 7.56067 43.4763 6.98667 43.5229 6.296C43.5789 5.596 43.6443 4.73267 43.7189 3.706C43.7376 3.43533 43.8356 3.3 44.0129 3.3H44.5589C44.8203 3.3 45.0396 3.328 45.2169 3.384C45.3943 3.44 45.5389 3.51933 45.6509 3.622C45.7629 3.71533 45.8423 3.82733 45.8889 3.958C45.9449 4.08867 45.9823 4.224 46.0009 4.364C46.1129 4.14933 46.2436 3.96733 46.3929 3.818C46.5516 3.65933 46.7149 3.53333 46.8829 3.44C47.0509 3.33733 47.2236 3.26733 47.4009 3.23C47.5783 3.18333 47.7416 3.16 47.8909 3.16C48.0683 3.16 48.2456 3.19267 48.4229 3.258C48.6096 3.32333 48.7776 3.42133 48.9269 3.552C49.0763 3.68267 49.1929 3.85067 49.2769 4.056C49.3703 4.26133 49.4169 4.504 49.4169 4.784C49.4169 5.036 49.3796 5.274 49.3049 5.498C49.2303 5.722 49.1229 5.92267 48.9829 6.1C48.8429 6.268 48.6703 6.40333 48.4649 6.506C48.2689 6.59933 48.0496 6.646 47.8069 6.646ZM51.4262 11C51.1368 11 50.8988 10.972 50.7122 10.916C50.5348 10.8507 50.3902 10.762 50.2782 10.65C50.1755 10.538 50.1008 10.4027 50.0542 10.244C50.0168 10.076 49.9982 9.88467 49.9982 9.67C49.9982 9.53 50.0028 9.334 50.0122 9.082C50.0308 8.82067 50.0588 8.466 50.0962 8.018C50.1335 7.56067 50.1755 6.98667 50.2222 6.296C50.2782 5.596 50.3435 4.73267 50.4182 3.706C50.4275 3.50067 50.4508 3.37933 50.4882 3.342C50.5162 3.314 50.5908 3.3 50.7122 3.3H51.2582C51.5475 3.3 51.7808 3.328 51.9582 3.384C52.1448 3.44 52.2895 3.524 52.3922 3.636C52.5042 3.748 52.5788 3.88333 52.6162 4.042C52.6628 4.20067 52.6862 4.378 52.6862 4.574C52.6862 4.714 52.6768 4.924 52.6582 5.204C52.6395 5.484 52.6115 5.86667 52.5742 6.352C52.5462 6.828 52.5042 7.42533 52.4482 8.144C52.3922 8.85333 52.3222 9.712 52.2382 10.72C52.2288 10.832 52.2055 10.9067 52.1682 10.944C52.1308 10.9813 52.0515 11 51.9302 11H51.4262ZM50.4322 1.648C50.4322 1.27467 50.5675 0.980667 50.8382 0.766C51.1088 0.551333 51.4728 0.444 51.9302 0.444C52.3315 0.444 52.6208 0.528 52.7982 0.695999C52.9848 0.854666 53.0782 1.06933 53.0782 1.34C53.0782 1.68533 52.9475 1.97467 52.6862 2.208C52.4342 2.432 52.0608 2.544 51.5662 2.544C50.8102 2.544 50.4322 2.24533 50.4322 1.648ZM57.1557 11.14C56.745 11.14 56.3343 11.0887 55.9237 10.986C55.5223 10.8833 55.1583 10.706 54.8317 10.454C54.5143 10.202 54.253 9.866 54.0477 9.446C53.8423 9.026 53.7397 8.49867 53.7397 7.864C53.7397 7.63067 53.7583 7.35067 53.7957 7.024C53.833 6.69733 53.903 6.36133 54.0057 6.016C54.1177 5.67067 54.267 5.33 54.4537 4.994C54.6497 4.64867 54.9017 4.34067 55.2097 4.07C55.5177 3.79933 55.891 3.58 56.3297 3.412C56.7683 3.244 57.291 3.16 57.8977 3.16C58.383 3.16 58.7937 3.216 59.1297 3.328C59.4657 3.44 59.7363 3.594 59.9417 3.79C60.147 3.97667 60.2963 4.196 60.3897 4.448C60.483 4.7 60.5297 4.97067 60.5297 5.26C60.5297 5.68933 60.441 6.05333 60.2637 6.352C60.0957 6.65067 59.8717 6.90267 59.5917 7.108C59.321 7.304 59.0177 7.458 58.6817 7.57C58.3457 7.682 58.0143 7.77067 57.6877 7.836C57.361 7.892 57.0577 7.92933 56.7777 7.948C56.507 7.95733 56.297 7.962 56.1477 7.962C56.1477 8.13933 56.171 8.31667 56.2177 8.494C56.2737 8.662 56.353 8.81133 56.4557 8.942C56.5583 9.07267 56.6937 9.18 56.8617 9.264C57.0297 9.348 57.235 9.39 57.4777 9.39C57.7203 9.39 57.907 9.35267 58.0377 9.278C58.1777 9.194 58.2897 9.10533 58.3737 9.012C58.4577 8.90933 58.5277 8.82067 58.5837 8.746C58.649 8.662 58.733 8.62 58.8357 8.62C58.8823 8.62 58.9617 8.634 59.0737 8.662C59.195 8.68067 59.3163 8.72733 59.4377 8.802C59.559 8.87667 59.6663 8.97933 59.7597 9.11C59.853 9.24067 59.8997 9.40867 59.8997 9.614C59.8997 9.88467 59.8157 10.118 59.6477 10.314C59.4797 10.51 59.2603 10.6687 58.9897 10.79C58.7283 10.9113 58.4343 11 58.1077 11.056C57.781 11.112 57.4637 11.14 57.1557 11.14ZM57.4217 5.022C57.2163 5.022 57.039 5.08267 56.8897 5.204C56.7497 5.316 56.6283 5.46067 56.5257 5.638C56.4323 5.81533 56.3577 6.01133 56.3017 6.226C56.255 6.44067 56.2177 6.646 56.1897 6.842C56.7683 6.83267 57.235 6.73467 57.5897 6.548C57.9537 6.36133 58.1357 6.09533 58.1357 5.75C58.1357 5.56333 58.075 5.39533 57.9537 5.246C57.8417 5.09667 57.6643 5.022 57.4217 5.022ZM64.6348 3.16C65.4282 3.16 66.0115 3.31867 66.3848 3.636C66.7582 3.944 66.9448 4.34067 66.9448 4.826C66.9448 5.23667 66.8142 5.54933 66.5528 5.764C66.3008 5.97867 65.9322 6.086 65.4468 6.086C65.3162 6.086 65.2275 6.072 65.1808 6.044C65.1342 6.016 65.1108 5.96467 65.1108 5.89C65.1108 5.806 65.1015 5.71267 65.0828 5.61C65.0735 5.498 65.0408 5.39533 64.9848 5.302C64.9382 5.19933 64.8588 5.11533 64.7468 5.05C64.6442 4.98467 64.4948 4.952 64.2988 4.952C64.0375 4.952 63.8275 5.01733 63.6688 5.148C63.5102 5.26933 63.4308 5.42333 63.4308 5.61C63.4308 5.806 63.5102 5.96467 63.6688 6.086C63.8368 6.198 64.0422 6.30533 64.2848 6.408C64.5368 6.51067 64.8075 6.618 65.0968 6.73C65.3862 6.83267 65.6522 6.97267 65.8948 7.15C66.1468 7.32733 66.3522 7.55133 66.5108 7.822C66.6788 8.08333 66.7628 8.424 66.7628 8.844C66.7628 9.516 66.5248 10.0667 66.0488 10.496C65.5728 10.9253 64.8588 11.14 63.9068 11.14C63.6455 11.14 63.3422 11.1167 62.9968 11.07C62.6608 11.0327 62.3388 10.972 62.0308 10.888C61.7228 10.7947 61.4615 10.6733 61.2468 10.524C61.0415 10.3747 60.9388 10.188 60.9388 9.964C60.9388 9.88 60.9528 9.77733 60.9808 9.656C61.0182 9.53467 61.0695 9.418 61.1348 9.306C61.2095 9.194 61.2935 9.10067 61.3868 9.026C61.4895 8.942 61.6108 8.9 61.7508 8.9C61.8628 8.9 61.9655 8.928 62.0588 8.984C62.1522 9.04 62.2595 9.10067 62.3808 9.166C62.5115 9.222 62.6702 9.278 62.8568 9.334C63.0435 9.39 63.2908 9.418 63.5988 9.418C63.8322 9.418 64.0375 9.39 64.2148 9.334C64.4015 9.278 64.4948 9.152 64.4948 8.956C64.4948 8.77867 64.4202 8.63867 64.2708 8.536C64.1215 8.424 63.9302 8.32133 63.6968 8.228C63.4728 8.13467 63.2255 8.03667 62.9548 7.934C62.6935 7.822 62.4462 7.67733 62.2128 7.5C61.9888 7.32267 61.8022 7.09867 61.6528 6.828C61.5035 6.548 61.4288 6.18867 61.4288 5.75C61.4288 5.274 61.5222 4.87267 61.7088 4.546C61.9048 4.21 62.1522 3.93933 62.4508 3.734C62.7588 3.52867 63.1042 3.384 63.4868 3.3C63.8695 3.20667 64.2522 3.16 64.6348 3.16Z" fill="#A585FF"/>
</svg>
